<?xml version="1.0" encoding="utf-8"?>
<!-- Generator: Adobe Illustrator 24.3.0, SVG Export Plug-In . SVG Version: 6.00 Build 0)  -->
<svg version="1.1" id="Layer_1" xmlns="http://www.w3.org/2000/svg" xmlns:xlink="http://www.w3.org/1999/xlink" x="0px" y="0px"
	 viewBox="0 0 95 24" style="enable-background:new 0 0 95 24;" xml:space="preserve">
<style type="text/css">
	.st0{fill:#2D84DD;}
</style>
<g>
	<g>
		<path class="st0" d="M26,10.3c1.2-1.3,2.6-1.7,4.3-1.6c1.6,0.1,3,0.8,4,2.1c0.2-0.3,0.4-0.5,0.6-0.7c0.8-0.8,1.7-1.2,2.8-1.4
			c1.1-0.1,2.2,0,3.1,0.5c1.2,0.6,1.9,1.6,2.3,2.8c0.4,1,0.5,2.1,0.6,3.2c0.1,1.4,0.2,2.9,0.4,4.3c0,0.4,0.2,0.7,0.4,1.1
			c0.1,0.3,0.3,0.5,0.4,0.7c0.1,0.2,0.2,0.5,0.2,0.8s-0.2,0.5-0.5,0.6c-0.1,0-0.3,0-0.4,0c-2,0-4,0-6,0c-0.9,0-1-0.5-0.8-1.2
			c0.1-0.2,0.2-0.4,0.4-0.6c0.5-0.6,0.6-1.3,0.5-2c-0.1-1.6-0.2-3.3-0.3-4.9c-0.1-0.7-0.2-1.4-0.3-2.2c0-0.2-0.2-0.5-0.3-0.7
			c-0.4-0.6-1.3-0.6-1.8,0c-0.3,0.3-0.4,0.7-0.4,1.2c0,0.4,0,0.8,0,1.2c0,0.5,0,1,0,1.4c0,1.3,0,2.7,0,4c0,0.7,0.2,1.3,0.6,1.9
			c0.2,0.3,0.3,0.5,0.4,0.8c0.2,0.6-0.1,1-0.8,1c-0.9,0-1.9,0-2.8,0c-1.1,0-2.2,0-3.2,0c-0.1,0-0.3,0-0.4,0
			c-0.3-0.1-0.4-0.2-0.5-0.5c0-0.3,0-0.6,0.2-0.8c0.1-0.2,0.3-0.5,0.4-0.7c0.3-0.4,0.4-0.9,0.4-1.4c0-2,0-4,0-6
			c0-0.6-0.1-1.2-0.3-1.7C29,11,28.6,10.8,28,10.8s-1,0.3-1.2,0.9c-0.2,0.5-0.2,1-0.2,1.5c0,2,0,4,0,6c0,0.7,0.3,1.2,0.7,1.7
			c0.1,0.2,0.3,0.3,0.4,0.5c0.1,0.1,0.2,0.2,0.2,0.4c0.2,0.6-0.1,1-0.7,1c-2.3,0-4.5,0-6.8,0c-0.6,0-0.9-0.4-0.7-1
			c0.1-0.3,0.3-0.5,0.5-0.8c0.3-0.4,0.6-0.8,0.7-1.3c0-0.1,0-0.3,0-0.4c0-1.5,0-3.1,0-4.6c0-0.5-0.2-1-0.6-1.4
			c-0.2-0.2-0.5-0.4-0.7-0.7c-0.1-0.1-0.2-0.3-0.3-0.5c-0.1-0.3,0-0.6,0.3-0.8c0.2-0.1,0.3-0.2,0.5-0.3c1.6-0.7,3.1-1.4,4.7-2.1
			C25.6,8.5,26,8.8,26,9.7C26,9.9,26,10,26,10.3z"/>
	</g>
	<g>
		<path class="st0" d="M86.4,21.6c-0.8,0.8-1.7,1.2-2.7,1.3c-1.5,0.2-3,0.1-4.2-0.6c-1.5-0.8-1.9-2.4-1.5-4c0.5-1.8,1.7-3,3.5-3.6
			c1.6-0.5,3.2-0.5,4.6,0.1c0.1,0,0.2,0.1,0.3,0.2c0-0.5,0-1.3,0-1.8c0-0.7,0-1.4,0-2.1c0-0.2,0-0.4-0.1-0.5c0-0.6-0.3-0.8-0.7-0.9
			c-0.5,0-0.8,0.2-1,0.6c-0.2,0.4-0.4,0.8-0.7,1.2c-0.2,0.3-0.3,0.5-0.5,0.8c-0.7,1.1-1.6,1.5-2.7,1.3c-1.8-0.4-1.7-2.1-0.8-3.3
			c0.5-0.6,1.1-1,1.9-1.3c1.5-0.6,3-0.7,4.4-0.7c1.2,0,2.4,0.3,3.4,0.8c1.8,1,2.4,2.6,2.4,4.8c0,1.8-0.1,3.9-0.1,5.7
			c0,0.7,0.2,1.2,0.7,1.6l0.1,0.1c0.3,0.3,0.2,0.7-0.2,0.9c-0.2,0.2-0.5,0.3-0.8,0.3c-1.1,0.3-2.2,0.3-3.3,0.2
			c-0.4,0-0.8-0.1-1.1-0.2C86.8,22.5,86.5,22.2,86.4,21.6z M86.1,19.5c0-0.5,0.1-1.1,0.1-1.6c0-0.4-0.1-0.9-0.2-1.3
			c-0.1-0.3-0.2-0.5-0.4-0.7c-0.3-0.3-0.8-0.2-1.2,0.2c-0.2,0.2-0.3,0.5-0.4,0.8c-0.3,1-0.3,1.9-0.2,2.8c0,0.4,0.1,0.9,0.4,1.2
			c0.3,0.5,0.9,0.5,1.4-0.1C85.9,20.5,86,20,86.1,19.5z"/>
	</g>
	<g>
		<path class="st0" d="M11.4,21.6c-0.8,0.8-1.7,1.2-2.7,1.3c-1.5,0.2-3,0.1-4.2-0.6c-1.5-0.8-1.9-2.4-1.5-4c0.5-1.8,1.7-3,3.5-3.6
			c1.6-0.5,3.2-0.5,4.6,0.1c0.1,0,0.2,0.1,0.3,0.2c0-0.5,0-1.3,0-1.8c0-0.7,0-1.4,0-2.1c0-0.2,0-0.4-0.1-0.5
			c-0.1-0.4-0.4-0.7-0.9-0.7s-0.8,0.2-1,0.6c-0.2,0.4-0.4,0.8-0.7,1.2c-0.2,0.3-0.3,0.5-0.5,0.8c-0.7,1.1-1.6,1.5-2.7,1.3
			c-1.8-0.4-1.7-2.1-0.8-3.3C5.4,9.7,6,9.3,6.8,9c1.5-0.6,3-0.7,4.4-0.7c1.2,0,2.4,0.3,3.4,0.8c1.8,1,2.4,2.6,2.4,4.8
			c0,1.8-0.1,3.9-0.1,5.7c0,0.7,0.2,1.2,0.7,1.6l0.1,0.1c0.3,0.3,0.2,0.7-0.2,0.9c-0.2,0.2-0.5,0.3-0.8,0.3
			c-1.1,0.3-2.2,0.3-3.3,0.2c-0.4,0-0.8-0.1-1.1-0.2C11.8,22.5,11.5,22.2,11.4,21.6z M11.1,19.5c0-0.5,0.1-1.1,0.1-1.6
			c0-0.4-0.1-0.9-0.2-1.3c-0.1-0.3-0.2-0.5-0.4-0.7c-0.3-0.3-0.8-0.2-1.2,0.2c-0.2,0.2-0.3,0.5-0.4,0.8c-0.3,1-0.3,1.9-0.2,2.8
			c0,0.4,0.1,0.9,0.4,1.2c0.3,0.5,0.9,0.5,1.4-0.1C10.9,20.5,11,20,11.1,19.5z"/>
	</g>
	<g>
		<path class="st0" d="M66.8,10.6c0,2.8,0,5.6,0,8.5c0,0.6,0.2,1.2,0.6,1.6c0.2,0.2,0.4,0.4,0.5,0.6s0.2,0.4,0.2,0.7
			c0,0.4-0.2,0.6-0.5,0.7c-0.1,0-0.2,0-0.3,0c-2.2,0-4.4,0-6.6,0c-0.8,0-1.1-0.5-0.7-1.2c0.2-0.3,0.4-0.6,0.6-0.8
			c0.3-0.5,0.5-1,0.5-1.6c0-4,0-8,0-12c0-0.7-0.2-1.2-0.6-1.8C60.2,5.2,60,5,59.9,4.9c-0.3-0.5-0.2-0.9,0.3-1.2
			C62,2.8,63.7,2,65.4,1.2C65.6,1.1,65.7,1,65.9,1c0.5,0,0.8,0.3,0.9,0.8c0,0.3,0,0.7,0,1C66.8,5.4,66.8,8,66.8,10.6z"/>
	</g>
	<g>
		<path class="st0" d="M52.4,17.5c0.8,1.2,2.3,1.7,3.7,1.3c0.6-0.2,1.2-0.4,1.7-0.8c0.2-0.2,0.5-0.3,0.8-0.1
			c0.3,0.2,0.3,0.4,0.3,0.7c-0.1,1-0.6,1.7-1.2,2.4c-1.1,1.2-2.5,1.8-4.2,1.9c-1.5,0.1-3-0.2-4.3-1c-1.8-1.1-2.8-2.7-3.1-4.7
			c-0.3-1.4-0.2-2.8,0.4-4.2c0.9-2.3,2.7-3.7,5-4.2c1.5-0.3,3-0.2,4.4,0.3c1,0.4,1.8,1,2.3,1.9c0.3,0.5,0.4,1.1,0.4,1.6
			c-0.1,0.7-0.5,1.1-1,1.5c-1.2,0.8-2.4,1.6-3.6,2.4C53.4,16.9,52.9,17.2,52.4,17.5z M51.5,16c0.7-0.5,1.4-1,2-1.6
			c0.2-0.1,0.3-0.4,0.4-0.6c0.2-0.5,0.2-1,0.1-1.4c-0.1-0.6-0.2-1.1-0.5-1.6c-0.5-0.7-1.4-0.7-1.9-0.1c-0.3,0.4-0.5,0.8-0.5,1.2
			c-0.1,0.8-0.1,1.6,0.1,2.4C51.2,14.9,51.4,15.4,51.5,16z"/>
	</g>
	<g>
		<path class="st0" d="M76.2,14.4c0,1.6,0,3.1,0,4.7c0,0.6,0.2,1.1,0.5,1.5c0.2,0.2,0.4,0.4,0.5,0.7c0.1,0.2,0.2,0.4,0.2,0.7
			c0.1,0.4-0.2,0.7-0.6,0.7c-0.1,0-0.2,0-0.3,0c-2.2,0-4.4,0-6.6,0c-0.8,0-1.1-0.5-0.7-1.2c0.1-0.2,0.2-0.4,0.4-0.6
			c0.5-0.6,0.7-1.2,0.7-2c0-1.3,0-2.7,0-4c0-0.7-0.2-1.3-0.6-1.8c-0.1-0.2-0.3-0.3-0.4-0.5c-0.4-0.5-0.2-1,0.3-1.3
			c1.7-0.8,3.4-1.7,5.1-2.5c0.1-0.1,0.3-0.1,0.4-0.1c0.6-0.1,1,0.2,1,0.8c0,1.2,0,2.5,0,3.7C76.2,13.6,76.2,14,76.2,14.4z"/>
	</g>
	<g>
		<path class="st0" d="M73.3,7.6c-0.9,0-1.7-0.3-2.3-1c-1.3-1.5-1-3.9,0.6-4.9C72.8,1,74.1,1,75.2,1.9C76.9,3.1,76.8,6,75,7.1
			C74.5,7.4,74,7.6,73.3,7.6z"/>
	</g>
</g>
</svg>
